<svg width="23" height="24" viewBox="0 0 23 24" fill="none" xmlns="http://www.w3.org/2000/svg">
<g clip-path="url(#clip0_305_541)">
<path d="M5.11557 15.4253H2.53171C1.5999 15.4253 0.841797 16.2179 0.841797 17.192V22.915C0.841797 23.5133 1.30738 24 1.87959 24H5.76759C6.33985 24 6.80544 23.5133 6.80544 22.915V17.1921C6.80544 16.2179 6.04738 15.4253 5.11557 15.4253Z" fill="#232536"/>
<path d="M12.6995 11.9491H10.1157C9.18386 11.9491 8.42575 12.7417 8.42575 13.7158V22.9147C8.42575 23.513 8.89134 23.9997 9.46359 23.9997H13.3516C13.9239 23.9997 14.3894 23.513 14.3894 22.9147V13.7158C14.3894 12.7416 13.6313 11.9491 12.6995 11.9491Z" fill="#232536"/>
<path d="M20.4261 7.98877H17.8423C16.9104 7.98877 16.1523 8.78133 16.1523 9.75545V22.9148C16.1523 23.5131 16.6179 23.9998 17.1901 23.9998H21.0781C21.6504 23.9998 22.1159 23.5131 22.1159 22.9148V9.75545C22.116 8.78133 21.3579 7.98877 20.4261 7.98877Z" fill="#232536"/>
<path d="M18.3679 0.668189C18.0518 0.201126 17.5378 -0.045859 16.9927 0.00645363L12.1126 0.478486C11.5676 0.53122 11.1057 0.87294 10.8769 1.39264C10.6481 1.91235 10.7002 2.50152 11.0163 2.96858L11.2887 3.37105L5.23158 7.7468L5.22539 7.75134C4.79558 8.0693 4.50997 8.54325 4.42115 9.08583C4.33232 9.62841 4.45087 10.1746 4.755 10.624C5.05913 11.0733 5.51248 11.3719 6.03147 11.4648C6.14392 11.4849 6.25651 11.4949 6.36833 11.4949C6.77115 11.4949 7.16351 11.3657 7.49939 11.1184L13.5662 6.73575L13.8475 7.15111C14.1355 7.57669 14.5878 7.81983 15.0781 7.81983C15.1259 7.81983 15.1741 7.81748 15.2226 7.81284C15.7676 7.76011 16.2295 7.41834 16.4583 6.89859L18.5074 2.24413C18.7362 1.72433 18.6841 1.13521 18.3679 0.668189Z" fill="#FFD050"/>
</g>
<defs>
<clipPath id="clip0_305_541">
<rect width="22.9565" height="24" fill="white"/>
</clipPath>
</defs>
</svg>
